Coordinates
version=1
nRows=6
nColumns=107
inDegrees=yes

Units are S.I. units (second, meters, Newtons, ...)
If the header above contains a line with 'inDegrees', this indicates whether rotational values are in degrees (yes) or radians (no).

endheader
time	sternoclavicular_r2	sternoclavicular_r3	unrotscap_r3	unrotscap_r2	acromioclavicular_r2	acromioclavicular_r3	acromioclavicular_r1	unrothum_r1	unrothum_r3	unrothum_r2	elv_angle	shoulder_elv	shoulder1_r2	shoulder_rot	elbow_flexion	pro_sup	deviation	flexion	proximal_distal_r1	proximal_distal_r3	cmc_flexion	cmc_abduction	mp_flexion	ip_flexion	mcp2_flexion	mcp2_abduction	pm2_flexion	md2_flexion	mcp3_flexion	mcp3_abduction	pm3_flexion	md3_flexion	mcp4_flexion	mcp4_abduction	pm4_flexion	md4_flexion	mcp5_flexion	mcp5_abduction	pm5_flexion	md5_flexion	bicpt_tx	bicpt_ty	bicpt_tz	bicpt2_tx	bicpt2_ty	bicpt2_tz	ptpt_tx	ptpt_ty	ptpt_tz	FCUpt_tx	FCUpt_ty	FCUpt_tz	EDCpt_tx	EDCpt_ty	EDCpt_tz	APLpt_tx	APLpt_ty	APLpt_tz	FPLpt_tx	FPLpt_ty	FPLpt_tz	FPLpt2_tx	FPLpt2_ty	FPLpt2_tz	PEC1pt2_tx	PEC1pt2_ty	PEC1pt2_tz	PEC1pt3_tx	PEC1pt3_ty	PEC1pt3_tz	PEC2pt2_tx	PEC2pt2_ty	PEC2pt2_tz	PEC2pt3_tx	PEC2pt3_ty	PEC2pt3_tz	PEC3pt2_tx	PEC3pt2_ty	PEC3pt2_tz	PEC3pt3_tx	PEC3pt3_ty	PEC3pt3_tz	DELT2pt2a_tx	DELT2pt2a_ty	DELT2pt2a_tz	DELT2pt2_tx	DELT2pt2_ty	DELT2pt2_tz	LAT1pt2_tx	LAT1pt2_ty	LAT1pt2_tz	LAT1pt3_tx	LAT1pt3_ty	LAT1pt3_tz	LAT2pt2_tx	LAT2pt2_ty	LAT2pt2_tz	LAT2pt3_tx	LAT2pt3_ty	LAT2pt3_tz	LAT3pt2_tx	LAT3pt2_ty	LAT3pt2_tz	LAT3pt3_tx	LAT3pt3_ty	LAT3pt3_tz
      1.13333333	     -0.32022833	      0.13563361	     -0.13563361	      0.32022833	     -0.06483972	      0.52401183	      0.23553971	     -0.23553971	     -0.52401183	      0.06483972	     99.39832961	     75.81690347	     -1.73482812	    -24.88416402	     28.38757963	     18.17636687	      0.06210758	     -0.88556178	      0.08113222	     -0.44278089	      1.79624550	      9.54654968	    -37.06152642	    -52.33601213	     34.01805916	      8.56709717	     20.61772464	    -21.79185772	     89.68620848	      3.29665409	     82.21697211	     37.61649236	     75.96901944	    -11.13806184	     85.97095151	     24.56196172	     19.16516467	     -0.11472991	     -7.33207425	      4.98896645	      0.00083897	     -0.03085365	     -0.00482408	      0.01598884	     -0.01791163	     -0.00946585	      0.00620697	     -0.06576842	     -0.00151420	      0.00565656	     -0.18388143	     -0.00005216	     -0.00218116	      0.00056598	      0.00017403	      0.00024931	      0.00009973	      0.00049863	      0.00031912	      0.00095736	      0.00053852	      0.00003480	     -0.00004312	     -0.00005174	      0.00248511	      0.00871895	      0.00606536	     -0.00812926	      0.01962817	     -0.01861728	      0.00248511	      0.00871895	      0.00606536	      0.00054757	      0.01819607	     -0.00956136	      0.00393467	      0.00484850	      0.01593510	      0.00000000	      0.00768694	      0.00000000	     -0.00711837	     -0.03289614	     -0.00633771	      0.01643515	     -0.00058647	     -0.00517503	     -0.00088453	      0.01482643	     -0.00606536	      0.00244299	      0.02139723	     -0.01769063	     -0.00593900	      0.01284676	     -0.00543355	     -0.01238344	      0.02712563	     -0.03036891	     -0.02325054	      0.01436310	     -0.00728685	     -0.01541612	      0.03133768	     -0.03795060
      1.16666667	     -0.32013662	      0.13559476	     -0.13559476	      0.32013662	     -0.06482115	      0.52386176	      0.23547225	     -0.23547225	     -0.52386176	      0.06482115	     99.40997625	     75.79518966	     -1.73503139	    -24.87730942	     28.38930862	     18.17528304	      0.06206777	     -0.88552520	      0.08108147	     -0.44276260	      1.79660999	      9.54664128	    -37.06138958	    -52.33593681	     34.01915695	      8.56700157	     20.61759992	    -21.79179954	     89.68749454	      3.29713969	     82.21720931	     37.61631729	     75.97018303	    -11.13801532	     85.97099351	     24.56183485	     19.16766849	     -0.11510278	     -7.33125338	      4.98902373	      0.00083903	     -0.03085385	     -0.00482411	      0.01598879	     -0.01791209	     -0.00946593	      0.00620705	     -0.06576837	     -0.00151412	      0.00565646	     -0.18388144	     -0.00005214	     -0.00218103	      0.00056594	      0.00017402	      0.00024932	      0.00009973	      0.00049865	      0.00031913	      0.00095740	      0.00053854	      0.00003479	     -0.00004312	     -0.00005175	      0.00248440	      0.00871645	      0.00606362	     -0.00812694	      0.01962255	     -0.01861195	      0.00248440	      0.00871645	      0.00606362	      0.00054741	      0.01819086	     -0.00955862	      0.00393384	      0.00484711	      0.01593307	      0.00000000	      0.00768251	      0.00000000	     -0.00711633	     -0.03288672	     -0.00633403	      0.01643163	     -0.00058625	     -0.00517216	     -0.00088428	      0.01482218	     -0.00606362	      0.00244229	      0.02139110	     -0.01768556	     -0.00593729	      0.01284308	     -0.00543199	     -0.01237989	      0.02711786	     -0.03036021	     -0.02324388	      0.01435899	     -0.00728477	     -0.01541170	      0.03132870	     -0.03793974
      1.20000000	     -0.31886180	      0.13505481	     -0.13505481	      0.31886180	     -0.06456303	      0.52177569	      0.23453458	     -0.23453458	     -0.52177569	      0.06456303	     99.82399689	     75.49336616	     -1.74225742	    -26.67531990	     28.24544092	     18.90710364	      0.04116987	     -0.90552389	      0.05448669	     -0.45276194	      1.55731564	     10.03030201	    -36.96934592	    -52.14370192	     34.74589908	      8.35651217	     19.74236412	    -21.92765866	     90.01658181	      3.33450418	     82.43713120	     36.04000338	     76.30510813	    -11.25110935	     86.91779773	     24.01539839	     19.47813935	     -0.37610022	     -7.63461517	      4.98599021	      0.00083427	     -0.03083736	     -0.00482145	      0.01602608	     -0.01787301	     -0.00940983	      0.00615298	     -0.06580334	     -0.00157307	      0.00572529	     -0.18387068	     -0.00006916	     -0.00226885	      0.00059087	      0.00017728	      0.00023979	      0.00009592	      0.00047959	      0.00030694	      0.00092081	      0.00051796	      0.00003208	     -0.00003759	     -0.00004510	      0.00247451	      0.00868174	      0.00603947	     -0.00809457	      0.01954441	     -0.01853783	      0.00247451	      0.00868174	      0.00603947	      0.00054523	      0.01811842	     -0.00952056	      0.00392236	      0.00482781	      0.01590476	      0.00000000	      0.00762103	      0.00000000	     -0.00708799	     -0.03275576	     -0.00628298	      0.01733031	     -0.00064526	     -0.00594935	     -0.00088076	      0.01476316	     -0.00603947	      0.00243257	      0.02130592	     -0.01761513	     -0.00591365	      0.01279194	     -0.00541036	     -0.01233059	      0.02700987	     -0.03023931	     -0.02315132	      0.01430181	     -0.00725576	     -0.01535033	      0.03120395	     -0.03778866
      1.23333333	     -0.31889632	      0.13506943	     -0.13506943	      0.31889632	     -0.06457002	      0.52183216	      0.23455997	     -0.23455997	     -0.52183216	      0.06457002	     99.80870060	     75.50153720	     -1.74199045	    -26.68619823	     28.23969811	     18.90109000	      0.04118244	     -0.90551749	      0.05450218	     -0.45275875	      1.55785191	     10.02961172	    -36.96887961	    -52.14339817	     34.74501799	      8.35630512	     19.74248397	    -21.92761699	     90.01679784	      3.33503906	     82.43767030	     36.04023498	     76.30626339	    -11.25096620	     86.91921861	     24.01561002	     19.48210180	     -0.37789989	     -7.63335476	      4.98617517	      0.00083408	     -0.03083670	     -0.00482135	      0.01602578	     -0.01787145	     -0.00941029	      0.00615342	     -0.06580305	     -0.00157258	      0.00572472	     -0.18387077	     -0.00006902	     -0.00226813	      0.00059066	      0.00017725	      0.00023979	      0.00009592	      0.00047958	      0.00030693	      0.00092080	      0.00051795	      0.00003208	     -0.00003760	     -0.00004512	      0.00247477	      0.00868268	      0.00604013	     -0.00809545	      0.01954653	     -0.01853984	      0.00247477	      0.00868268	      0.00604013	      0.00054529	      0.01812038	     -0.00952159	      0.00392267	      0.00482833	      0.01590553	      0.00000000	      0.00762269	      0.00000000	     -0.00708876	     -0.03275931	     -0.00628436	      0.01733557	     -0.00064563	     -0.00595423	     -0.00088085	      0.01476476	     -0.00604013	      0.00243283	      0.02130823	     -0.01761704	     -0.00591429	      0.01279333	     -0.00541095	     -0.01233193	      0.02701280	     -0.03024259	     -0.02315382	      0.01430336	     -0.00725654	     -0.01535199	      0.03120733	     -0.03779275
      1.26666667	     -0.31838416	      0.13485250	     -0.13485250	      0.31838416	     -0.06446632	      0.52099409	      0.23418326	     -0.23418326	     -0.52099409	      0.06446632	     99.85464964	     75.38027992	     -1.74279241	    -27.15018057	     28.45702878	     19.30933865	      0.06506055	     -0.88205676	      0.08483252	     -0.44102838	      1.48230954	      9.57471164	    -36.09371486	    -50.89192316	     34.81320055	      8.87723647	     21.40442702	    -22.10838494	     89.37534243	      3.57504604	     82.56925711	     38.11690355	     75.95048855	    -11.27862511	     86.83533925	     25.65011984	     20.63456001	     -1.35732975	     -6.95002349	      5.02386413	      0.00084127	     -0.03086161	     -0.00482536	      0.01604606	     -0.01793049	     -0.00937867	      0.00612326	     -0.06582256	     -0.00160547	      0.00576319	     -0.18386470	     -0.00007834	     -0.00231712	      0.00060464	      0.00017895	      0.00025091	      0.00010036	      0.00050182	      0.00032117	      0.00096350	      0.00054197	      0.00003115	     -0.00003584	     -0.00004301	      0.00247080	      0.00866874	      0.00603043	     -0.00808245	      0.01951513	     -0.01851006	      0.00247080	      0.00866874	      0.00603043	      0.00054441	      0.01809128	     -0.00950630	      0.00391805	      0.00482058	      0.01589410	      0.00000000	      0.00759806	      0.00000000	     -0.00707738	     -0.03270669	     -0.00626391	      0.01756038	     -0.00066103	     -0.00616196	     -0.00087944	      0.01474104	     -0.00603043	      0.00242892	      0.02127401	     -0.01758875	     -0.00590479	      0.01277278	     -0.00540226	     -0.01231212	      0.02696941	     -0.03019402	     -0.02311664	      0.01428039	     -0.00724489	     -0.01532734	      0.03115721	     -0.03773205
      1.30000000	     -0.31812345	      0.13474208	     -0.13474208	      0.31812345	     -0.06441353	      0.52056748	      0.23399150	     -0.23399150	     -0.52056748	      0.06441353	     99.84781985	     75.31855510	     -1.74267321	    -27.33609605	     28.56302175	     19.78223325	      0.08192110	     -0.89990473	      0.10568542	     -0.44995236	      2.08018283	      9.08200594	    -35.82368912	    -50.65771780	     35.46819438	      8.79111756	     21.84365095	    -21.95367846	     88.14669889	      3.67846407	     81.80255457	     37.85168167	     74.88404242	    -11.50059278	     86.24200755	     25.42214628	     20.89585164	     -2.55085184	     -6.76123754	      5.07752291	      0.00084478	     -0.03087376	     -0.00482732	      0.01606907	     -0.01795928	     -0.00934175	      0.00608832	     -0.06584515	     -0.00164357	      0.00580782	     -0.18385761	     -0.00008898	     -0.00237386	      0.00062089	      0.00018079	      0.00024254	      0.00009701	      0.00048507	      0.00031045	      0.00093134	      0.00052388	      0.00003739	     -0.00004960	     -0.00005952	      0.00246878	      0.00866164	      0.00602549	     -0.00807583	      0.01949915	     -0.01849491	      0.00246878	      0.00866164	      0.00602549	      0.00054397	      0.01807647	     -0.00949851	      0.00391569	      0.00481663	      0.01588827	      0.00000000	      0.00758554	      0.00000000	     -0.00707158	     -0.03267991	     -0.00625351	      0.01764966	     -0.00066722	     -0.00624599	     -0.00087872	      0.01472897	     -0.00602549	      0.00242693	      0.02125659	     -0.01757434	     -0.00589996	      0.01276232	     -0.00539783	     -0.01230204	      0.02694733	     -0.03016929	     -0.02309771	      0.01426869	     -0.00723896	     -0.01531479	      0.03113170	     -0.03770115
